<?xml version="1.0" encoding="UTF-8"?><svg id="Layer_1" xmlns="http://www.w3.org/2000/svg" viewBox="0 0 1000 1000"><defs><style>.cls-1,.cls-2,.cls-3,.cls-4{fill:#fff;}.cls-5,.cls-6,.cls-2,.cls-3,.cls-7,.cls-4{isolation:isolate;}.cls-6{letter-spacing:-.02em;}.cls-6,.cls-2,.cls-3,.cls-7{font-family:Montserrat-Medium, Montserrat;font-weight:500;}.cls-6,.cls-7,.cls-4{font-size:140.54px;}.cls-6,.cls-7,.cls-8{fill:#cadb2a;}.cls-2{letter-spacing:.01em;}.cls-2,.cls-3{font-size:38.92px;}.cls-9{letter-spacing:-.02em;}.cls-4{font-family:Montserrat-SemiBold, Montserrat;font-weight:600;}</style></defs><g><g><path class="cls-8" d="m140.51,201.81L499.97,0l447.4,251.13v541.56c-53.16-6.06-108.14-11.1-164.71-14.98l.94-434.66L492.09,52.8,140.51,201.81Z"/><path class="cls-1" d="m212.58,81.61v68.19l-72.08,51.99L492.09,52.8l291.51,290.21-283.6-159.23-283.6,159.23.94,434.66c-56.54,3.89-111.52,8.9-164.71,14.98V81.61h159.99-.02.02-.04Z"/></g><g><rect class="cls-8" x="374.49" y="423.17" width="106.54" height="103.58"/><rect class="cls-1" x="518.96" y="423.17" width="106.54" height="103.58"/><rect class="cls-8" x="374.49" y="557.89" width="106.54" height="103.58"/><rect class="cls-1" x="518.96" y="557.89" width="106.54" height="103.58"/></g></g><g><g class="cls-5"><text class="cls-7" transform="translate(0 925.56) scale(1.03 1)"><tspan x="0" y="0">N</tspan></text><text class="cls-6" transform="translate(117.37 925.56) scale(1.03 1)"><tspan x="0" y="0">e</tspan></text><text class="cls-7" transform="translate(203.68 925.56) scale(1.03 1)"><tspan x="0" y="0">xt</tspan></text></g><g class="cls-5"><text class="cls-4" transform="translate(345.47 925.56) scale(1.03 1)"><tspan x="0" y="0">Ho</tspan></text><text class="cls-4" transform="translate(555.79 925.56) scale(1.03 1)"><tspan x="0" y="0">r</tspan></text><text class="cls-4" transform="translate(615.78 925.56) scale(1.03 1)"><tspan x="0" y="0">i</tspan></text><text class="cls-4" transform="translate(657.56 925.56) scale(1.03 1)"><tspan x="0" y="0">z</tspan></text><text class="cls-4" transform="translate(733.3 925.56) scale(1.03 1)"><tspan x="0" y="0">ons</tspan></text></g></g><g class="cls-5"><text class="cls-2" transform="translate(9.7 989.76) scale(1.03 1)"><tspan x="0" y="0">Dé</tspan></text><text class="cls-3" transform="translate(68.06 989.76) scale(1.03 1)"><tspan x="0" y="0">c</tspan></text><text class="cls-2" transform="translate(90.99 989.76) scale(1.03 1)"><tspan x="0" y="0">ouv</tspan></text><text class="cls-3" transform="translate(167.09 989.76) scale(1.03 1)"><tspan x="0" y="0">r</tspan></text><text class="cls-3" transform="translate(183.41 989.76) scale(1.03 1)"><tspan x="0" y="0">e</tspan></text><text class="cls-2" transform="translate(208.12 989.76) scale(1.03 1)"><tspan x="0" y="0">z </tspan></text><text class="cls-3" transform="translate(240.54 989.76) scale(1.03 1)"><tspan x="0" y="0">v</tspan></text><text class="cls-3" transform="translate(262.71 989.76) scale(1.03 1)"><tspan x="0" y="0">os nou</tspan></text><text class="cls-3" transform="translate(401.12 989.76) scale(1.03 1)"><tspan class="cls-9" x="0" y="0">v</tspan><tspan x="21.17" y="0">e</tspan></text><text class="cls-3" transform="translate(447.59 989.76) scale(1.03 1)"><tspan x="0" y="0">aux ho</tspan></text><text class="cls-3" transform="translate(586.56 989.76) scale(1.03 1)"><tspan x="0" y="0">r</tspan></text><text class="cls-3" transform="translate(603.09 989.76) scale(1.03 1)"><tspan x="0" y="0">i</tspan></text><text class="cls-3" transform="translate(614.66 989.76) scale(1.03 1)"><tspan x="0" y="0">z</tspan></text><text class="cls-2" transform="translate(635.6 989.76) scale(1.03 1)"><tspan x="0" y="0">ons immobilie</tspan></text><text class="cls-3" transform="translate(930.79 989.76) scale(1.03 1)"><tspan x="0" y="0">r</tspan></text><text class="cls-2" transform="translate(947.56 989.76) scale(1.03 1)"><tspan x="0" y="0">s !</tspan></text></g></svg>