<?xml version="1.0" encoding="UTF-8"?><svg id="Layer_1" xmlns="http://www.w3.org/2000/svg" viewBox="0 0 1650 300"><defs><style>.cls-1{fill:#1e2e5f;}.cls-2{font-family:Montserrat-SemiBold, Montserrat;font-weight:600;}.cls-2,.cls-3{font-size:181.2px;}.cls-2,.cls-3,.cls-4,.cls-5{isolation:isolate;}.cls-2,.cls-6,.cls-5{fill:#12274d;}.cls-3,.cls-5{font-family:Montserrat-Medium, Montserrat;font-weight:500;}.cls-3,.cls-7{fill:#cadb2a;}.cls-8{letter-spacing:.01em;}.cls-9{letter-spacing:0em;}.cls-10{letter-spacing:0em;}.cls-11{letter-spacing:0em;}.cls-12{letter-spacing:0em;}.cls-5{font-size:50.17px;}.cls-13{letter-spacing:0em;}.cls-14{letter-spacing:0em;}.cls-15{letter-spacing:-.01em;}.cls-16{letter-spacing:0em;}.cls-17{letter-spacing:0em;}.cls-18{letter-spacing:0em;}.cls-19{letter-spacing:0em;}</style></defs><g><g><path class="cls-7" d="m32.49,76.38L165.4,0l165.41,95.04v204.96c-19.66-2.29-39.98-4.2-60.9-5.67l.35-164.5L162.48,19.98,32.49,76.38Z"/><path class="cls-6" d="m59.14,30.89v25.81l-26.65,19.68L162.48,19.98l107.78,109.83-104.85-60.26-104.85,60.26.35,164.5c-20.9,1.47-41.23,3.37-60.9,5.67V30.89h59.15,0,0,0Z"/></g><g><rect class="cls-7" x="119" y="160.15" width="39.39" height="39.2"/><rect class="cls-1" x="172.42" y="160.15" width="39.39" height="39.2"/><rect class="cls-7" x="119" y="211.14" width="39.39" height="39.2"/><rect class="cls-1" x="172.42" y="211.14" width="39.39" height="39.2"/></g></g><g><g class="cls-4"><text class="cls-3" transform="translate(390.44 189.02)"><tspan x="0" y="0">N</tspan><tspan class="cls-15" x="147.13" y="0">e</tspan><tspan x="255.31" y="0">xt</tspan></text><text class="cls-2" transform="translate(825.58 189.02)"><tspan x="0" y="0">Ho</tspan><tspan class="cls-17" x="263.65" y="0">r</tspan><tspan x="338.84" y="0">i</tspan><tspan class="cls-19" x="391.21" y="0">z</tspan><tspan x="486.16" y="0">ons</tspan></text></g><g class="cls-4"><text class="cls-5" transform="translate(409.54 271.8)"><tspan class="cls-11" x="0" y="0">Dé</tspan><tspan class="cls-10" x="73.15" y="0">c</tspan><tspan class="cls-11" x="101.9" y="0">ouv</tspan><tspan class="cls-18" x="197.29" y="0">r</tspan><tspan class="cls-9" x="217.76" y="0">e</tspan><tspan class="cls-11" x="248.71" y="0">z </tspan><tspan class="cls-14" x="289.36" y="0">v</tspan><tspan class="cls-8" x="317.15" y="0">os nou</tspan><tspan class="cls-12" x="490.65" y="0">ve</tspan><tspan class="cls-11" x="548.91" y="0">aux ho</tspan><tspan class="cls-16" x="723.11" y="0">r</tspan><tspan class="cls-8" x="743.83" y="0">i</tspan><tspan class="cls-10" x="758.33" y="0">z</tspan><tspan class="cls-8" x="784.57" y="0">ons immobilie</tspan><tspan class="cls-13" x="1154.61" y="0">r</tspan><tspan class="cls-8" x="1175.63" y="0">s !</tspan></text></g></g></svg>